/* XPM */
static char *web_py[] = {
/* columns rows colors chars-per-pixel */
"32 32 222 2",
"   c #101615",
".  c #22312E",
"X  c #23312F",
"o  c #243330",
"O  c #243331",
"+  c #273835",
"@  c #283836",
"#  c #2A3B38",
"$  c #2A3C39",
"%  c #2B3C39",
"&  c #2B3D3A",
"*  c #2C3E3A",
"=  c #334744",
"-  c #334845",
";  c #334945",
":  c #344945",
">  c #344946",
",  c #344A46",
"<  c #354A46",
"1  c #496762",
"2  c #4A6863",
"3  c #4B6863",
"4  c #4B6964",
"5  c #4C6964",
"6  c #4C6A65",
"7  c #4D6A65",
"8  c #4E6B66",
"9  c #4E6C67",
"0  c #4F6C68",
"q  c #506C68",
"w  c #506D68",
"e  c #526E69",
"r  c #536F6B",
"t  c #54706C",
"y  c #55716C",
"u  c #56726E",
"i  c #57726E",
"p  c #57736E",
"a  c #58736F",
"s  c #58746F",
"d  c #597470",
"f  c #597570",
"g  c #5B7671",
"h  c #5B7672",
"j  c #5C7773",
"k  c #5D7874",
"l  c #5E7874",
"z  c #5F7975",
"x  c #607A76",
"c  c #617B77",
"v  c #637D78",
"b  c #637D79",
"n  c #647D79",
"m  c #657E7B",
"M  c #667F7B",
"N  c #67807C",
"B  c #68817D",
"V  c #69827E",
"C  c #6A837F",
"Z  c #6B837F",
"A  c #6B8480",
"S  c #6D8581",
"D  c #6E8682",
"F  c #6E8683",
"G  c #708884",
"H  c #728985",
"J  c #728986",
"K  c #738A86",
"L  c #758C88",
"P  c #768C89",
"I  c #768D89",
"U  c #778E8A",
"Y  c #788E8A",
"T  c #788F8B",
"R  c #798F8B",
"E  c #7B918D",
"W  c #7B918E",
"Q  c #7B918F",
"!  c #7C928F",
"~  c #7D928F",
"^  c #7D938F",
"/  c #7D9390",
"(  c #7E9390",
")  c #7F9591",
"_  c #809592",
"`  c #809593",
"'  c #819693",
"]  c #829693",
"[  c #829793",
"{  c #829794",
"}  c #839794",
"|  c #849996",
" . c #859A97",
".. c #869B97",
"X. c #879B97",
"o. c #869A98",
"O. c #879B98",
"+. c #889C99",
"@. c #889C9A",
"#. c #899D9B",
"$. c #8DA09E",
"%. c #8EA19E",
"&. c #8EA19F",
"*. c #90A29F",
"=. c #90A39F",
"-. c #8FA2A0",
";. c #90A3A1",
":. c #91A4A2",
">. c #92A5A3",
",. c #93A5A4",
"<. c #96A8A4",
"1. c #96A8A5",
"2. c #96A8A6",
"3. c #97A9A6",
"4. c #98AAA7",
"5. c #99AAA7",
"6. c #97A9A8",
"7. c #98AAA8",
"8. c #9AABAA",
"9. c #9AACAA",
"0. c #9BACAB",
"q. c #9CADAC",
"w. c #9CAEAC",
"e. c #9CAEAD",
"r. c #9DAEAD",
"t. c #9EAFAE",
"y. c #9EB0AF",
"u. c #9FB0AF",
"i. c #9FB1B0",
"p. c #A0B0AD",
"a. c #A0B1AE",
"s. c #A1B2AF",
"d. c #A2B2AF",
"f. c #A0B1B0",
"g. c #A2B3B0",
"h. c #A3B3B0",
"j. c #A6B6B3",
"k. c #A7B7B4",
"l. c #A9B8B5",
"z. c #AAB9B6",
"x. c #ABB9B7",
"c. c #ABBAB7",
"v. c #ADBCB9",
"b. c #AEBCBA",
"n. c #AEBDBA",
"m. c #B0BEBB",
"M. c #B0BEBC",
"N. c #B1BFBD",
"B. c #B3C1BE",
"V. c #B4C2BF",
"C. c #B5C3C0",
"Z. c #B9C6C3",
"A. c #BAC7C4",
"S. c #BCC8C6",
"D. c #BCC9C6",
"F. c #BDC9C7",
"G. c #BECAC8",
"H. c #BECBC8",
"J. c #BFCBC8",
"K. c #C0CCCA",
"L. c #C3CECC",
"P. c #C5D1CE",
"I. c #C6D1CE",
"U. c #C8D3D1",
"Y. c #CAD5D3",
"T. c #CBD5D3",
"R. c #CBD6D4",
"E. c #CED9D6",
"W. c #CFD9D6",
"Q. c #CFDAD7",
"!. c #D0DAD8",
"~. c #D1DAD8",
"^. c #D2DCD9",
"/. c #D5DEDC",
"(. c #D5DFDC",
"). c #D5DFDD",
"_. c #D7E0DD",
"`. c #D7E1DE",
"'. c #D8E1DF",
"]. c #D9E2DF",
"[. c #DAE3E1",
"{. c #DBE4E2",
"}. c #DDE5E3",
"|. c #DEE5E3",
" X c #DEE5E4",
".X c #DEE6E4",
"XX c #DFE7E5",
"oX c #DFE8E5",
"OX c #E0E8E6",
"+X c #E0E9E6",
"@X c #E1E9E7",
"#X c #E3EBE8",
"$X c #E3EBE9",
"%X c #E4EDEA",
"&X c #E5EDEA",
"*X c #E6EDEB",
"=X c #E6EEEC",
"-X c #E6EFEC",
";X c #E7EFEC",
":X c #E7EFED",
">X c #E8EFED",
",X c #E8F0ED",
"<X c #E8F0EE",
"1X c #E9F0EE",
"2X c #E8F1EE",
"3X c #E9F1EE",
"4X c #EAF1EF",
"5X c #EBF1EF",
"6X c #EAF2EF",
"7X c #EBF2F0",
"8X c #EAF3F0",
"9X c #EBF3F0",
"0X c #EBF3F1",
"qX c #EDF3F1",
"wX c #ECF4F1",
"eX c #ECF5F1",
"rX c #ECF5F2",
"tX c #EDF5F2",
"yX c #EEF6F3",
"uX c #EFF6F3",
"iX c #F2F8F6",
"pX c None",
/* pixels */
"  $ : < < < < < < < < < < < < < < < < < < < < < < < > > > - @ pX",
"# 1 1 1 1 1 1 1 1 1 1 1 1 1 1 1 1 1 1 1 1 1 1 1 1 1 1 1 1 1 1 O ",
"= 1 1 1 1 1 1 1 1 1 1 1 1 1 1 1 1 1 1 1 1 1 1 1 1 1 1 1 1 1 1 & ",
", 1 1 1 1 1 1 1 1 1 1 1 1 1 1 1 1 1 1 1 2 i m B N g 5 1 1 1 1 * ",
", 1 { E.S.7 1 1 8 I.Q.l.1 1 1 n T.R.M j @.w.r.f.y.e.-.c 1 1 1 * ",
", 1 S ,X3XZ 1 1 I ,XtX@Xy 1 1 *.tXXXr &.i.0.;.#.$.8.f.9.l 1 1 * ",
", 1 7 /.tX1.1 1 a.tX$X3X( 1 1 G.tXB.1 x ` f 1 1 1 u ,.f.( 1 1 * ",
", 1 1 h.tXU.1 4 W.6X~.tXz.1 p OX6X} 1 1 1 1 1 1 1 r :.f.| 1 1 * ",
", 1 1 K 4X#Xl b =XOX} 3X).6 ~ 6X+Xs 1 1 1 1 t V _ 6.u.t.C 1 1 * ",
", 1 1 0 `.9X..=.8XF.w .X-XA c.tXZ.1 1 1 l o.0.u.f.t.7.J 2 1 1 * ",
", 1 1 1 c.tXV.D.wX%.1 C.wX3.].9XO.1 1 F 9.f.q.>.! N e 1 1 1 1 * ",
", 1 1 1 R 3XOX&X;Xb 1 X.9X|.:X*Xa 1 x 0.u.o.h 1 1 1 1 1 1 1 1 * ",
", 1 1 1 q }.,X2X^.1 1 z $X%XwXK.1 1  .f.2.T L L L L L L L P 3 * ",
", 1 1 1 1 M.tXtXg.1 1 1 Y.tX9X%.1 5 7.f.f.f.f.f.f.f.f.f.f.f.6 * ",
", 1 1 1 1 S n.v.B 1 1 1 ) m.n.h 1 3 Q / / / / / / / / / / W 3 * ",
", 1 1 1 1 1 1 1 1 1 1 1 1 1 1 1 1 1 1 1 1 1 1 1 1 1 1 1 1 1 1 * ",
", 1 1 1 1 1 1 1 1 1 1 1 1 1 1 1 1 1 1 1 1 1 1 1 1 1 1 1 1 1 1 * ",
", 1 1 1 1 1 Y ] ] ] ] ] ] ] [ [ D 1 1 1 1 1 1 1 d ' ' c 1 1 1 * ",
", 1 1 1 1 1 /.tXtXtXtXtXtXtXtXyXqXX.1 1 1 1 1 y P.eXoXD 1 1 1 * ",
", 1 1 1 1 1 /.tX{.W.W.E.E.E.^.4XtX5XG 1 1 1 9 S.0X%X^ 1 1 1 1 * ",
", 1 1 1 1 1 /.tX4.1 1 1 1 1 1 H uXtX Xv 1 7 b.9X1X+.1 1 1 1 1 * ",
", 1 1 1 1 1 /.tX4.1 1 1 1 1 1 w 5XtXiX!.k h.9X<X3.1 1 1 1 1 1 * ",
", 1 1 1 1 1 /.tXG.<.<.<.<.<.5.L.9X7X>XrX'.,XwXj.4 1 1 1 1 1 1 * ",
", 1 1 1 1 1 /.tXtXwXwXwXwXwXtXtX3Xx.E &XtX9XN.6 1 1 1 1 1 1 1 * ",
", 1 1 1 1 1 /.tX_.J.J.H.H.H.A.k.^ 6 1 d.tX[.e 1 1 1 1 1 1 1 1 * ",
", 1 1 1 1 1 /.tX4.1 1 1 1 1 1 1 1 1 1 1.tX/.1 1 1 1 1 1 1 1 1 * ",
", 1 1 1 1 1 /.tX4.1 1 1 1 1 1 1 1 1 1 1.tX(.1 1 1 1 1 1 1 1 1 * ",
", 1 1 1 1 1 /.tX4.1 1 1 1 1 1 1 1 1 1 1.tX(.1 1 1 1 1 1 1 1 1 * ",
", 1 1 1 1 1 p.C.U 1 1 1 1 1 1 1 1 1 1 L C.s.1 1 1 1 1 1 1 1 1 * ",
"; 1 1 1 1 1 1 1 1 1 1 1 1 1 1 1 1 1 1 1 1 1 1 1 1 1 1 1 1 1 1 $ ",
"+ 1 1 1 1 1 1 1 1 1 1 1 1 1 1 1 1 1 1 1 1 1 1 1 1 1 1 1 1 1 1 . ",
"pXo & * * * * * * * * * * * * * * * * * * * * * * * * * * % X pX"
};
